<?xml version="1.0" encoding="utf-8"?>
<!DOCTYPE svg PUBLIC "-//W3C//DTD SVG 1.1//EN" "http://www.w3.org/Graphics/SVG/1.1/DTD/svg11.dtd">
<svg version="1.1" preserveAspectRatio="xMinYMin meet" xmlns="http://www.w3.org/2000/svg" xmlns:xlink="http://www.w3.org/1999/xlink" x="0px" y="0px" width="16px" height="16px" viewBox="0 0 16 16">
<path d="M0 0h16v16h-16v-16z" fill="rgb(255,255,255)" fill-opacity="0"/>
<path d="M5 3h5v1h1v1h-1v1h-2v-1h-1v1h-2v-1h-1v-1h1v-1z" fill="rgb(97,215,59)"/>
<path d="M3 5h1v1h1v2h-3v-2h1v-1z" fill="rgb(49,182,0)"/>
<path d="M4 5h1v1h-1v-1z" fill="rgb(41,109,35)"/>
<path d="M7 5h1v1h-1v-1z" fill="rgb(84,186,50)"/>
<path d="M10 5h1v1h-1v-1z" fill="rgb(41,109,35)"/>
<path d="M11 5h1v1h1v2h-3v-2h1v-1z" fill="rgb(49,182,0)"/>
<path d="M5 6h1v1h-1v-1z" fill="rgb(41,109,35)"/>
<path d="M6 6h1v1h-1v-1z" fill="rgb(84,186,50)"/>
<path d="M7 6h1v1h1v1h1v1h-1v1h-1v1h-1v-1h-1v-1h-1v-1h1v-1h1v-1z" fill="rgb(159,255,97)"/>
<path d="M8 6h1v1h-1v-1z" fill="rgb(84,186,50)"/>
<path d="M9 6h1v1h-1v-1z" fill="rgb(41,109,35)"/>
<path d="M5 7h1v1h-1v-1z" fill="rgb(72,156,44)"/>
<path d="M9 7h1v1h-1v-1z" fill="rgb(72,156,44)"/>
<path d="M2 8h3v1h-3v-1z" fill="rgb(72,156,44)"/>
<path d="M10 8h3v1h-3v-1z" fill="rgb(72,156,44)"/>
<path d="M2 9h4v2h-1v1h-2v-1h-1v-2z" fill="rgb(37,127,0)"/>
<path d="M9 9h4v2h-1v1h-2v-1h-1v-2z" fill="rgb(37,127,0)"/>
<path d="M6 10h1v1h-1v-1z" fill="rgb(32,88,27)"/>
<path d="M8 10h1v1h-1v-1z" fill="rgb(32,88,27)"/>
<path d="M5 11h1v1h-1v-1z" fill="rgb(32,88,27)"/>
<path d="M6 11h1v1h1v-1h1v1h1v2h-5v-2h1v-1z" fill="rgb(28,96,0)"/>
<path d="M7 11h1v1h-1v-1z" fill="rgb(32,88,27)"/>
<path d="M9 11h1v1h-1v-1z" fill="rgb(32,88,27)"/>
<path d="M4 12h1v1h-1v-1z" fill="rgb(32,88,27)"/>
<path d="M10 12h1v1h-1v-1z" fill="rgb(32,88,27)"/>
</svg>