<?xml version="1.0" encoding="utf-8"?>
<!DOCTYPE svg PUBLIC "-//W3C//DTD SVG 1.1//EN" "http://www.w3.org/Graphics/SVG/1.1/DTD/svg11.dtd">
<svg version="1.1" preserveAspectRatio="xMinYMin meet" xmlns="http://www.w3.org/2000/svg" xmlns:xlink="http://www.w3.org/1999/xlink" x="0px" y="0px" width="16px" height="16px" viewBox="0 0 16 16">
<path d="M0 0h16v16h-8v-1h1v-1h1v-1h1v-9h-1v-1h-1v-1h-1v-1h-1v1h-1v1h-1v1h-1v9
	h1v1h1v1h1v1h-7v-16z" fill="rgb(255,255,255)" fill-opacity="0"/>
<path d="M7 1h1v1h1v1h1v1h1v1h-1v1h-1v-1h-1v-1h-1v1h-1v1h-1v-1h-1v-1h1v-1h1v-1
	h1v-1z" fill="rgb(191,83,244)"/>
<path d="M7 4h1v1h-1v-1z" fill="rgb(159,67,204)"/>
<path d="M4 5h1v7h-1v-7z" fill="rgb(143,1,235)"/>
<path d="M6 5h1v1h-1v-1z" fill="rgb(159,67,204)"/>
<path d="M7 5h1v1h1v5h-1v1h-1v-1h-1v-5h1v-1z" fill="rgb(213,166,247)"/>
<path d="M8 5h1v1h-1v-1z" fill="rgb(159,67,204)"/>
<path d="M10 5h1v7h-1v-7z" fill="rgb(143,1,235)"/>
<path d="M5 6h1v5h-1v-5z" fill="rgb(116,18,167)"/>
<path d="M9 6h1v5h-1v-5z" fill="rgb(116,18,167)"/>
<path d="M5 11h2v1h-2v-1z" fill="rgb(88,0,134)"/>
<path d="M8 11h2v1h-2v-1z" fill="rgb(88,0,134)"/>
<path d="M4 12h1v1h-1v-1z" fill="rgb(88,0,134)"/>
<path d="M5 12h2v1h1v-1h2v2h-1v1h-1v1h-1v-1h-1v-1h-1v-2z" fill="rgb(105,0,158)"/>
<path d="M7 12h1v1h-1v-1z" fill="rgb(88,0,134)"/>
<path d="M10 12h1v1h-1v-1z" fill="rgb(88,0,134)"/>
</svg>