<?xml version="1.0" encoding="utf-8"?>
<!DOCTYPE svg PUBLIC "-//W3C//DTD SVG 1.1//EN" "http://www.w3.org/Graphics/SVG/1.1/DTD/svg11.dtd">
<svg version="1.1" preserveAspectRatio="xMinYMin meet" xmlns="http://www.w3.org/2000/svg" xmlns:xlink="http://www.w3.org/1999/xlink" x="0px" y="0px" width="32px" height="16px" viewBox="0 0 32 16">
<path d="M0 0h32v9h-1v-1h-1v-1h-1v-5h-4v1h-4v-2h-4v1h-8v1h-1v1h-4v3h-1v3h2v2h3
	v1h3v-1h4v-1h1v1h1v1h1v1h3v-1h3v-1h2v-1h2v-1h4v6h-32v-16z" fill="rgb(255,255,255)" fill-opacity="0"/>
<path d="M17 1h4v2h4v-1h4v5h1v1h1v1h1v1h-4v1h-2v1h-2v1h-3v1h-3v-1h-1v-1h-1v-1
	h-1v1h-4v1h-3v-1h-3v-2h-2v-3h1v-3h4v-1h1v-1h8v-1z" fill="rgb(202,202,202)"/>
</svg>