<?xml version="1.0" encoding="utf-8"?>
<!DOCTYPE svg PUBLIC "-//W3C//DTD SVG 1.1//EN" "http://www.w3.org/Graphics/SVG/1.1/DTD/svg11.dtd">
<svg version="1.1" preserveAspectRatio="xMinYMin meet" xmlns="http://www.w3.org/2000/svg" xmlns:xlink="http://www.w3.org/1999/xlink" x="0px" y="0px" width="16px" height="16px" viewBox="0 0 16 16">
<path d="M0 0h16v16h-16v-16z" fill="rgb(255,255,255)" fill-opacity="0"/>
<path d="M7 1h1v1h-1v-1z" fill="rgb(103,64,53)"/>
<path d="M4 2h2v1h-2v-1z" fill="rgb(130,204,92)"/>
<path d="M8 2h1v1h-1v-1z" fill="rgb(92,57,48)"/>
<path d="M5 3h1v1h1v1h-2v-2z" fill="rgb(94,126,74)"/>
<path d="M6 3h1v1h-1v-1z" fill="rgb(130,204,92)"/>
<path d="M7 3h1v2h-1v-2z" fill="rgb(92,57,48)"/>
<path d="M8 3h3v1h-3v-1z" fill="rgb(196,69,77)"/>
<path d="M3 4h2v1h-2v-1z" fill="rgb(176,62,69)"/>
<path d="M8 4h1v1h-1v-1z" fill="rgb(103,64,53)"/>
<path d="M9 4h2v1h-2v-1z" fill="rgb(218,77,86)"/>
<path d="M11 4h2v1h-2v-1z" fill="rgb(196,69,77)"/>
<path d="M2 5h1v1h-1v-1z" fill="rgb(176,62,69)"/>
<path d="M3 5h2v1h-2v-1z" fill="rgb(196,69,77)"/>
<path d="M5 5h1v1h-1v-1z" fill="rgb(218,77,86)"/>
<path d="M6 5h1v1h2v-1h4v2h-1v-1h-2v1h-1v1h-5v-2h2v-1z" fill="rgb(221,121,74)"/>
<path d="M7 5h1v1h-1v-1z" fill="rgb(94,126,74)"/>
<path d="M8 5h1v1h-1v-1z" fill="rgb(83,51,43)"/>
<path d="M13 5h1v2h-1v-2z" fill="rgb(198,109,66)"/>
<path d="M2 6h1v2h-1v-2z" fill="rgb(178,98,59)"/>
<path d="M3 6h1v2h-1v-2z" fill="rgb(198,109,66)"/>
<path d="M10 6h2v1h-2v-1z" fill="rgb(238,188,165)"/>
<path d="M9 7h1v1h1v1h-1v1h-6v-2h5v-1z" fill="rgb(233,228,176)"/>
<path d="M10 7h2v2h-1v-1h-1v-1z" fill="rgb(244,242,216)"/>
<path d="M12 7h1v2h-1v-2z" fill="rgb(233,228,176)"/>
<path d="M13 7h1v2h-1v-2z" fill="rgb(209,205,158)"/>
<path d="M2 8h1v2h-1v-2z" fill="rgb(188,184,142)"/>
<path d="M3 8h1v2h-1v-2z" fill="rgb(209,205,158)"/>
<path d="M10 9h3v2h-4v1h-4v-1h-1v-1h6v-1z" fill="rgb(119,189,95)"/>
<path d="M13 9h1v2h-1v-2z" fill="rgb(107,170,85)"/>
<path d="M2 10h1v1h-1v-1z" fill="rgb(96,153,76)"/>
<path d="M3 10h1v1h-1v-1z" fill="rgb(107,170,85)"/>
<path d="M3 11h1v1h-1v-1z" fill="rgb(96,153,76)"/>
<path d="M4 11h1v1h-1v-1z" fill="rgb(107,170,85)"/>
<path d="M9 11h3v1h-1v1h-5v-1h3v-1z" fill="rgb(74,151,198)"/>
<path d="M12 11h1v1h-1v-1z" fill="rgb(66,136,178)"/>
<path d="M3 12h1v1h-1v-1z" fill="rgb(59,122,160)"/>
<path d="M4 12h2v1h-2v-1z" fill="rgb(66,136,178)"/>
<path d="M11 12h1v1h-1v-1z" fill="rgb(112,60,137)"/>
<path d="M12 12h1v1h-1v-1z" fill="rgb(101,54,123)"/>
<path d="M4 13h2v1h2v1h-3v-1h-1v-1z" fill="rgb(91,48,110)"/>
<path d="M6 13h2v1h-2v-1z" fill="rgb(101,54,123)"/>
<path d="M8 13h1v1h-1v-1z" fill="rgb(91,48,110)"/>
<path d="M9 13h2v1h-2v-1z" fill="rgb(101,54,123)"/>
<path d="M11 13h1v1h-1v-1z" fill="rgb(91,48,110)"/>
<path d="M9 14h2v1h-2v-1z" fill="rgb(91,48,110)"/>
</svg>