<?xml version="1.0" encoding="utf-8"?>
<!DOCTYPE svg PUBLIC "-//W3C//DTD SVG 1.1//EN" "http://www.w3.org/Graphics/SVG/1.1/DTD/svg11.dtd">
<svg version="1.1" preserveAspectRatio="xMinYMin meet" xmlns="http://www.w3.org/2000/svg" xmlns:xlink="http://www.w3.org/1999/xlink" x="0px" y="0px" width="16px" height="16px" viewBox="0 0 16 16">
<path d="M0 0h16v6h-1v-1h-1v-1h-1v-1h-1v-1h-2v1h-4v1h-2v1h-3v1h-1v-6z" fill="rgb(255,255,255)" fill-opacity="0"/>
<path d="M10 2h2v1h-2v-1z" fill="rgb(231,211,64)"/>
<path d="M6 3h4v1h-3v1h-3v-1h2v-1z" fill="rgb(231,211,64)"/>
<path d="M10 3h2v1h1v1h1v1h-3v1h-3v1h-3v1h-1v-1h-1v-1h-1v-1h2v-1h3v-1h3v-1z" fill="rgb(253,251,79)"/>
<path d="M12 3h1v1h-1v-1z" fill="rgb(231,211,64)"/>
<path d="M13 4h1v1h-1v-1z" fill="rgb(231,211,64)"/>
<path d="M1 5h3v1h-2v1h-1v4h-1v-5h1v-1z" fill="rgb(231,211,64)"/>
<path d="M14 5h1v1h-1v-1z" fill="rgb(231,211,64)"/>
<path d="M11 6h3v1h-3v-1z" fill="rgb(231,211,64)"/>
<path d="M14 6h1v4h-3v1h-3v1h-3v1h-1v-4h3v-1h3v-1h3v-1z" fill="rgb(253,251,79)"/>
<path d="M15 6h1v4h-1v-4z" fill="rgb(231,211,64)"/>
<path d="M1 7h1v1h1v2h1v3h-1v-1h-1v-1h-1v-4z" fill="rgb(253,251,79)"/>
<path d="M2 7h1v1h-1v-1z" fill="rgb(222,222,0)"/>
<path d="M8 7h3v1h-3v-1z" fill="rgb(231,211,64)"/>
<path d="M3 8h1v1h-1v-1z" fill="rgb(222,222,0)"/>
<path d="M5 8h3v1h-3v-1z" fill="rgb(231,211,64)"/>
<path d="M3 9h1v1h-1v-1z" fill="rgb(255,255,11)"/>
<path d="M4 9h1v4h1v1h-3v-1h1v-4z" fill="rgb(231,211,64)"/>
<path d="M12 10h3v1h-3v-1z" fill="rgb(231,211,64)"/>
<path d="M15 10h1v6h-16v-5h1v1h1v1h1v1h3v-1h3v-1h3v-1h3v-1z" fill="rgb(255,255,255)" fill-opacity="0"/>
<path d="M1 11h1v1h-1v-1z" fill="rgb(231,211,64)"/>
<path d="M9 11h3v1h-3v-1z" fill="rgb(231,211,64)"/>
<path d="M2 12h1v1h-1v-1z" fill="rgb(231,211,64)"/>
<path d="M6 12h3v1h-3v-1z" fill="rgb(231,211,64)"/>
</svg>