<?xml version="1.0" encoding="utf-8"?>
<!DOCTYPE svg PUBLIC "-//W3C//DTD SVG 1.1//EN" "http://www.w3.org/Graphics/SVG/1.1/DTD/svg11.dtd">
<svg version="1.1" preserveAspectRatio="xMinYMin meet" xmlns="http://www.w3.org/2000/svg" xmlns:xlink="http://www.w3.org/1999/xlink" x="0px" y="0px" width="16px" height="16px" viewBox="0 0 16 16">
<path d="M0 0h2v1h-1v14h1v1h-2v-16z" fill="rgb(138,138,138)"/>
<path d="M2 0h1v1h-1v-1z" fill="rgb(173,94,59)"/>
<path d="M3 0h1v1h-1v-1z" fill="rgb(130,55,26)"/>
<path d="M4 0h8v1h-8v-1z" fill="rgb(138,138,138)"/>
<path d="M12 0h1v1h-1v-1z" fill="rgb(173,94,59)"/>
<path d="M13 0h1v1h-1v-1z" fill="rgb(130,55,26)"/>
<path d="M14 0h2v16h-2v-1h1v-14h-1v-1z" fill="rgb(138,138,138)"/>
<path d="M1 1h14v1h-14v-1z" fill="rgb(210,144,89)"/>
<path d="M1 2h14v1h-14v-1z" fill="rgb(173,88,48)"/>
<path d="M1 3h1v2h-1v-2z" fill="rgb(143,143,143)"/>
<path d="M2 3h1v2h-1v-2z" fill="rgb(173,94,59)"/>
<path d="M3 3h1v2h-1v-2z" fill="rgb(130,55,26)"/>
<path d="M4 3h3v1h-3v-1z" fill="rgb(118,118,118)"/>
<path d="M7 3h4v2h-7v-1h3v-1z" fill="rgb(143,143,143)"/>
<path d="M11 3h1v1h-1v-1z" fill="rgb(126,126,126)"/>
<path d="M12 3h1v2h-1v-2z" fill="rgb(173,94,59)"/>
<path d="M13 3h1v2h-1v-2z" fill="rgb(130,55,26)"/>
<path d="M14 3h1v2h-1v-2z" fill="rgb(143,143,143)"/>
<path d="M11 4h1v1h-1v-1z" fill="rgb(118,118,118)"/>
<path d="M1 5h14v1h-14v-1z" fill="rgb(210,144,89)"/>
<path d="M1 6h11v1h-11v-1z" fill="rgb(173,88,48)"/>
<path d="M12 6h1v3h-1v-3z" fill="rgb(173,94,59)"/>
<path d="M13 6h2v1h-2v-1z" fill="rgb(173,88,48)"/>
<path d="M1 7h1v2h-1v-2z" fill="rgb(143,143,143)"/>
<path d="M2 7h1v2h-1v-2z" fill="rgb(173,94,59)"/>
<path d="M3 7h1v2h-1v-2z" fill="rgb(130,55,26)"/>
<path d="M4 7h5v1h-3v1h-2v-2z" fill="rgb(143,143,143)"/>
<path d="M9 7h2v1h-2v-1z" fill="rgb(118,118,118)"/>
<path d="M11 7h1v2h-2v-1h1v-1z" fill="rgb(143,143,143)"/>
<path d="M13 7h1v2h-1v-2z" fill="rgb(130,55,26)"/>
<path d="M14 7h1v2h-1v-2z" fill="rgb(143,143,143)"/>
<path d="M6 8h4v1h-4v-1z" fill="rgb(126,126,126)"/>
<path d="M1 9h14v1h-14v-1z" fill="rgb(210,144,89)"/>
<path d="M1 10h14v1h-14v-1z" fill="rgb(173,88,48)"/>
<path d="M1 11h1v2h-1v-2z" fill="rgb(143,143,143)"/>
<path d="M2 11h1v2h-1v-2z" fill="rgb(173,94,59)"/>
<path d="M3 11h1v2h-1v-2z" fill="rgb(130,55,26)"/>
<path d="M4 11h7v2h-4v-1h-3v-1z" fill="rgb(143,143,143)"/>
<path d="M11 11h1v1h-1v-1z" fill="rgb(126,126,126)"/>
<path d="M12 11h1v2h-1v-2z" fill="rgb(173,94,59)"/>
<path d="M13 11h1v2h-1v-2z" fill="rgb(130,55,26)"/>
<path d="M14 11h1v2h-1v-2z" fill="rgb(143,143,143)"/>
<path d="M4 12h3v1h-3v-1z" fill="rgb(126,126,126)"/>
<path d="M11 12h1v1h-1v-1z" fill="rgb(118,118,118)"/>
<path d="M1 13h14v1h-14v-1z" fill="rgb(210,144,89)"/>
<path d="M1 14h14v1h-14v-1z" fill="rgb(173,88,48)"/>
<path d="M2 15h1v1h-1v-1z" fill="rgb(173,94,59)"/>
<path d="M3 15h1v1h-1v-1z" fill="rgb(130,55,26)"/>
<path d="M4 15h8v1h-8v-1z" fill="rgb(138,138,138)"/>
<path d="M12 15h1v1h-1v-1z" fill="rgb(173,94,59)"/>
<path d="M13 15h1v1h-1v-1z" fill="rgb(130,55,26)"/>
</svg>