<?xml version="1.0" encoding="utf-8"?>
<!DOCTYPE svg PUBLIC "-//W3C//DTD SVG 1.1//EN" "http://www.w3.org/Graphics/SVG/1.1/DTD/svg11.dtd">
<svg version="1.1" preserveAspectRatio="xMinYMin meet" xmlns="http://www.w3.org/2000/svg" xmlns:xlink="http://www.w3.org/1999/xlink" x="0px" y="0px" width="16px" height="16px" viewBox="0 0 16 16">
<path d="M0 0h6v1h-1v2h-1v3h1v1h1v7h1v1h-1v1h-6v-16z" fill="rgb(255,255,255)" fill-opacity="0"/>
<path d="M6 0h3v1h-1v1h-2v2h-2v-1h1v-2h1v-1z" fill="rgb(245,183,208)"/>
<path d="M9 0h2v1h-1v2h-1v3h-1v1h-3v-1h-1v-2h1v1h2v-3h1v-1h1v-1z" fill="rgb(232,128,176)"/>
<path d="M11 0h5v16h-7v-2h1v-9h1v-1h1v-1h-1v-3z" fill="rgb(255,255,255)" fill-opacity="0"/>
<path d="M10 1h1v2h1v1h-2v-3z" fill="rgb(245,183,208)"/>
<path d="M6 2h1v1h-1v-1z" fill="rgb(156,220,244)"/>
<path d="M6 3h1v1h-1v-1z" fill="rgb(220,243,253)"/>
<path d="M9 3h1v1h-1v-1z" fill="rgb(220,243,253)"/>
<path d="M5 4h2v1h-2v-1z" fill="rgb(232,156,191)"/>
<path d="M9 4h2v1h-2v-1z" fill="rgb(232,156,191)"/>
<path d="M9 5h1v6h-1v2h-2v-2h-1v-4h2v-1h1v-1z" fill="rgb(245,183,208)"/>
<path d="M6 11h1v1h-1v-1z" fill="rgb(126,208,242)"/>
<path d="M9 11h1v1h-1v-1z" fill="rgb(250,245,171)"/>
<path d="M6 12h1v1h-1v-1z" fill="rgb(250,245,171)"/>
<path d="M9 12h1v1h-1v-1z" fill="rgb(126,208,242)"/>
<path d="M6 13h1v1h-1v-1z" fill="rgb(245,183,208)"/>
<path d="M7 13h2v3h-3v-1h1v-2z" fill="rgb(232,128,176)"/>
<path d="M9 13h1v1h-1v-1z" fill="rgb(245,183,208)"/>
</svg>