<?xml version="1.0" encoding="utf-8"?>
<!DOCTYPE svg PUBLIC "-//W3C//DTD SVG 1.1//EN" "http://www.w3.org/Graphics/SVG/1.1/DTD/svg11.dtd">
<svg version="1.1" preserveAspectRatio="xMinYMin meet" xmlns="http://www.w3.org/2000/svg" xmlns:xlink="http://www.w3.org/1999/xlink" x="0px" y="0px" width="16px" height="16px" viewBox="0 0 16 16">
<path d="M0 0h16v16h-7v-4h4v-1h1v-4h-1v-1h-1v-1h-1v-1h-6v1h-1v1h-1v1h-1v4h1v1h4
	v4h-7v-16z" fill="rgb(255,255,255)" fill-opacity="0"/>
<path d="M5 4h6v1h1v1h1v1h1v4h-1v1h-10v-1h-1v-4h1v-1h1v-1h1v-1z" fill="rgb(226,18,18)"/>
<path d="M6 5h1v2h2v-2h1v3h1v-1h1v1h1v2h-1v1h-1v-2h-2v2h-2v-1h-2v1h-1v-1h-1v-2
	h1v1h2v-2h-1v-1h1v-1z" fill="rgb(254,42,42)"/>
<path d="M7 5h2v2h-2v-2z" fill="rgb(230,187,187)"/>
<path d="M10 6h1v2h-1v-2z" fill="rgb(230,187,187)"/>
<path d="M4 7h2v2h-2v-2z" fill="rgb(230,187,187)"/>
<path d="M9 9h2v2h-2v-2z" fill="rgb(230,187,187)"/>
<path d="M5 10h2v1h-2v-1z" fill="rgb(230,187,187)"/>
<path d="M7 12h1v4h-1v-4z" fill="rgb(124,64,66)"/>
<path d="M8 12h1v4h-1v-4z" fill="rgb(87,45,45)"/>
</svg>