<?xml version="1.0" encoding="utf-8"?>
<!DOCTYPE svg PUBLIC "-//W3C//DTD SVG 1.1//EN" "http://www.w3.org/Graphics/SVG/1.1/DTD/svg11.dtd">
<svg version="1.1" preserveAspectRatio="xMinYMin meet" xmlns="http://www.w3.org/2000/svg" xmlns:xlink="http://www.w3.org/1999/xlink" x="0px" y="0px" width="16px" height="16px" viewBox="0 0 16 16">
<path d="M0 0h16v16h-16v-16z" fill="rgb(255,255,255)" fill-opacity="0"/>
<path d="M7 3h2v1h-2v-1z" fill="rgb(45,0,0)"/>
<path d="M6 4h1v1h-1v-1z" fill="rgb(45,0,0)"/>
<path d="M7 4h2v1h1v1h-2v-1h-1v-1z" fill="rgb(73,0,0)"/>
<path d="M9 4h1v1h-1v-1z" fill="rgb(45,0,0)"/>
<path d="M5 5h1v1h-1v-1z" fill="rgb(45,0,0)"/>
<path d="M6 5h2v1h2v2h1v2h-1v1h-2v1h-4v-1h-1v-3h1v-1h1v-1h1v-1z" fill="rgb(114,0,0)"/>
<path d="M10 5h1v1h-1v-1z" fill="rgb(45,0,0)"/>
<path d="M4 6h1v1h-1v-1z" fill="rgb(45,0,0)"/>
<path d="M6 6h1v1h-1v-1z" fill="rgb(73,0,0)"/>
<path d="M10 6h1v1h1v1h1v3h-1v1h-2v1h-4v-1h2v-1h2v-1h1v-2h-1v-2z" fill="rgb(73,0,0)"/>
<path d="M11 6h1v1h-1v-1z" fill="rgb(45,0,0)"/>
<path d="M3 7h1v1h-1v-1z" fill="rgb(45,0,0)"/>
<path d="M8 7h1v1h-1v-1z" fill="rgb(73,0,0)"/>
<path d="M12 7h1v1h-1v-1z" fill="rgb(45,0,0)"/>
<path d="M2 8h1v3h-1v-3z" fill="rgb(45,0,0)"/>
<path d="M6 8h1v1h-1v-1z" fill="rgb(73,0,0)"/>
<path d="M13 8h1v3h-1v-3z" fill="rgb(45,0,0)"/>
<path d="M4 9h1v1h-1v-1z" fill="rgb(73,0,0)"/>
<path d="M8 9h1v1h-1v-1z" fill="rgb(73,0,0)"/>
<path d="M6 10h1v1h-1v-1z" fill="rgb(73,0,0)"/>
<path d="M3 11h1v1h-1v-1z" fill="rgb(45,0,0)"/>
<path d="M12 11h1v1h-1v-1z" fill="rgb(45,0,0)"/>
<path d="M4 12h2v1h-2v-1z" fill="rgb(45,0,0)"/>
<path d="M10 12h2v1h-2v-1z" fill="rgb(45,0,0)"/>
<path d="M6 13h4v1h-4v-1z" fill="rgb(45,0,0)"/>
</svg>