<?xml version="1.0" encoding="utf-8"?>
<!DOCTYPE svg PUBLIC "-//W3C//DTD SVG 1.1//EN" "http://www.w3.org/Graphics/SVG/1.1/DTD/svg11.dtd">
<svg version="1.1" preserveAspectRatio="xMinYMin meet" xmlns="http://www.w3.org/2000/svg" xmlns:xlink="http://www.w3.org/1999/xlink" x="0px" y="0px" width="16px" height="16px" viewBox="0 0 16 16">
<path d="M0 0h1v3h-1v-3z" fill="rgb(87,72,54)"/>
<path d="M1 0h2v3h-2v-3z" fill="rgb(128,94,54)"/>
<path d="M3 0h1v16h-1v-16z" fill="rgb(68,51,33)"/>
<path d="M4 0h1v3h-1v-3z" fill="rgb(128,94,54)"/>
<path d="M5 0h1v3h-1v-3z" fill="rgb(120,88,54)"/>
<path d="M6 0h1v16h-1v-16z" fill="rgb(68,51,33)"/>
<path d="M7 0h2v3h-2v-3z" fill="rgb(128,94,54)"/>
<path d="M9 0h1v16h-1v-16z" fill="rgb(68,51,33)"/>
<path d="M10 0h2v2h-2v-2z" fill="rgb(128,94,54)"/>
<path d="M12 0h1v16h-1v-16z" fill="rgb(68,51,33)"/>
<path d="M13 0h2v3h-2v-3z" fill="rgb(128,94,54)"/>
<path d="M15 0h1v16h-1v-16z" fill="rgb(58,44,28)"/>
<path d="M10 2h2v1h-2v-1z" fill="rgb(120,88,54)"/>
<path d="M0 3h1v1h-1v-1z" fill="rgb(53,53,53)"/>
<path d="M1 3h1v1h-1v-1z" fill="rgb(63,63,63)"/>
<path d="M2 3h1v1h-1v-1z" fill="rgb(104,104,104)"/>
<path d="M4 3h1v1h-1v-1z" fill="rgb(63,63,63)"/>
<path d="M5 3h1v1h-1v-1z" fill="rgb(104,104,104)"/>
<path d="M7 3h1v1h-1v-1z" fill="rgb(63,63,63)"/>
<path d="M8 3h1v1h-1v-1z" fill="rgb(104,104,104)"/>
<path d="M10 3h1v1h-1v-1z" fill="rgb(63,63,63)"/>
<path d="M11 3h1v1h-1v-1z" fill="rgb(104,104,104)"/>
<path d="M13 3h1v1h-1v-1z" fill="rgb(63,63,63)"/>
<path d="M14 3h1v1h-1v-1z" fill="rgb(104,104,104)"/>
<path d="M0 4h1v1h-1v-1z" fill="rgb(111,111,111)"/>
<path d="M1 4h2v8h-2v-8z" fill="rgb(128,94,54)"/>
<path d="M4 4h2v8h-2v-8z" fill="rgb(128,94,54)"/>
<path d="M7 4h2v5h-1v2h1v1h-2v-8z" fill="rgb(128,94,54)"/>
<path d="M10 4h2v8h-2v-8z" fill="rgb(128,94,54)"/>
<path d="M13 4h2v8h-2v-8z" fill="rgb(128,94,54)"/>
<path d="M0 5h1v7h-1v-7z" fill="rgb(87,72,54)"/>
<path d="M8 9h1v2h-1v-2z" fill="rgb(120,88,54)"/>
<path d="M0 12h1v1h-1v-1z" fill="rgb(53,53,53)"/>
<path d="M1 12h1v1h-1v-1z" fill="rgb(63,63,63)"/>
<path d="M2 12h1v1h-1v-1z" fill="rgb(104,104,104)"/>
<path d="M4 12h1v1h-1v-1z" fill="rgb(63,63,63)"/>
<path d="M5 12h1v1h-1v-1z" fill="rgb(104,104,104)"/>
<path d="M7 12h1v1h-1v-1z" fill="rgb(63,63,63)"/>
<path d="M8 12h1v1h-1v-1z" fill="rgb(104,104,104)"/>
<path d="M10 12h1v1h-1v-1z" fill="rgb(63,63,63)"/>
<path d="M11 12h1v1h-1v-1z" fill="rgb(104,104,104)"/>
<path d="M13 12h1v1h-1v-1z" fill="rgb(63,63,63)"/>
<path d="M14 12h1v1h-1v-1z" fill="rgb(104,104,104)"/>
<path d="M0 13h1v1h-1v-1z" fill="rgb(111,111,111)"/>
<path d="M1 13h2v3h-2v-3z" fill="rgb(128,94,54)"/>
<path d="M4 13h2v3h-2v-3z" fill="rgb(128,94,54)"/>
<path d="M7 13h2v3h-2v-3z" fill="rgb(128,94,54)"/>
<path d="M10 13h2v3h-2v-3z" fill="rgb(128,94,54)"/>
<path d="M13 13h2v3h-2v-3z" fill="rgb(128,94,54)"/>
<path d="M0 14h1v2h-1v-2z" fill="rgb(87,72,54)"/>
</svg>