<?xml version="1.0" encoding="utf-8"?>
<!DOCTYPE svg PUBLIC "-//W3C//DTD SVG 1.1//EN" "http://www.w3.org/Graphics/SVG/1.1/DTD/svg11.dtd">
<svg version="1.1" preserveAspectRatio="xMinYMin meet" xmlns="http://www.w3.org/2000/svg" xmlns:xlink="http://www.w3.org/1999/xlink" x="0px" y="0px" width="16px" height="16px" viewBox="0 0 16 16">
<path d="M0 0h16v16h-16v-16z" fill="rgb(138,138,138)"/>
<path d="M1 1h14v14h-14v-14z" fill="rgb(143,143,143)"/>
<path d="M3 2h4v1h-4v-1z" fill="rgb(126,126,126)"/>
<path d="M3 3h4v1h-4v-1z" fill="rgb(118,118,118)"/>
<path d="M11 3h2v1h-2v-1z" fill="rgb(126,126,126)"/>
<path d="M11 4h2v1h-2v-1z" fill="rgb(118,118,118)"/>
<path d="M9 6h2v1h-2v-1z" fill="rgb(126,126,126)"/>
<path d="M9 7h2v1h-2v-1z" fill="rgb(118,118,118)"/>
<path d="M6 8h4v1h-4v-1z" fill="rgb(126,126,126)"/>
<path d="M2 9h2v1h-2v-1z" fill="rgb(126,126,126)"/>
<path d="M6 9h4v1h-4v-1z" fill="rgb(118,118,118)"/>
<path d="M2 10h2v1h-2v-1z" fill="rgb(118,118,118)"/>
<path d="M11 11h2v1h-2v-1z" fill="rgb(126,126,126)"/>
<path d="M4 12h3v1h-3v-1z" fill="rgb(126,126,126)"/>
<path d="M11 12h1v1h-1v-1z" fill="rgb(118,118,118)"/>
<path d="M4 13h3v1h-3v-1z" fill="rgb(118,118,118)"/>
</svg>