<?xml version="1.0" encoding="utf-8"?>
<!DOCTYPE svg PUBLIC "-//W3C//DTD SVG 1.1//EN" "http://www.w3.org/Graphics/SVG/1.1/DTD/svg11.dtd">
<svg version="1.1" preserveAspectRatio="xMinYMin meet" xmlns="http://www.w3.org/2000/svg" xmlns:xlink="http://www.w3.org/1999/xlink" x="0px" y="0px" width="16px" height="16px" viewBox="0 0 16 16">
<path d="M0 0h16v16h-14v-1h1v-1h1v-1h1v-1h1v-1h1v-1h1v-1h5v-1h1v-1h1v-2h-2v-1h1
	v-2h-2v1h-1v-2h-2v1h-1v1h-1v5h-1v1h-1v1h-1v1h-1v1h-1v1h-1v1h-1v-14z" fill="rgb(255,255,255)" fill-opacity="0"/>
<path d="M9 1h2v2h-1v-1h-1v-1z" fill="rgb(231,211,64)"/>
<path d="M8 2h1v1h-1v-1z" fill="rgb(231,211,64)"/>
<path d="M9 2h1v1h-1v-1z" fill="rgb(253,251,79)"/>
<path d="M12 2h2v2h-1v-1h-1v-1z" fill="rgb(231,211,64)"/>
<path d="M7 3h1v1h1v1h1v1h-2v2h2v-2h1v1h1v1h1v1h-5v1h-1v-1h-1v-1h1v-5z" fill="rgb(231,211,64)"/>
<path d="M8 3h1v1h-1v-1z" fill="rgb(253,251,79)"/>
<path d="M9 3h1v1h-1v-1z" fill="rgb(231,211,64)"/>
<path d="M10 3h1v1h-1v-1z" fill="rgb(255,255,255)" fill-opacity="0"/>
<path d="M11 3h1v1h-1v-1z" fill="rgb(231,211,64)"/>
<path d="M12 3h1v1h-1v-1z" fill="rgb(253,251,79)"/>
<path d="M9 4h1v1h-1v-1z" fill="rgb(255,255,255)" fill-opacity="0"/>
<path d="M10 4h1v1h-1v-1z" fill="rgb(231,211,64)"/>
<path d="M11 4h1v1h-1v-1z" fill="rgb(253,251,79)"/>
<path d="M12 4h1v1h-1v-1z" fill="rgb(231,211,64)"/>
<path d="M10 5h1v1h-1v-1z" fill="rgb(253,251,79)"/>
<path d="M11 5h1v1h-1v-1z" fill="rgb(231,211,64)"/>
<path d="M12 5h1v1h-1v-1z" fill="rgb(255,255,255)" fill-opacity="0"/>
<path d="M13 5h2v2h-1v-1h-1v-1z" fill="rgb(231,211,64)"/>
<path d="M8 6h2v2h-2v-2z" fill="rgb(253,251,79)"/>
<path d="M11 6h1v1h-1v-1z" fill="rgb(255,255,255)" fill-opacity="0"/>
<path d="M12 6h1v1h-1v-1z" fill="rgb(231,211,64)"/>
<path d="M13 6h1v1h-1v-1z" fill="rgb(253,251,79)"/>
<path d="M12 7h1v1h-1v-1z" fill="rgb(253,251,79)"/>
<path d="M13 7h1v1h-1v-1z" fill="rgb(231,211,64)"/>
<path d="M5 9h1v1h-1v-1z" fill="rgb(231,211,64)"/>
<path d="M6 9h1v1h-1v-1z" fill="rgb(57,203,92)"/>
<path d="M4 10h1v1h-1v-1z" fill="rgb(231,211,64)"/>
<path d="M5 10h1v1h-1v-1z" fill="rgb(253,251,79)"/>
<path d="M6 10h1v1h-1v-1z" fill="rgb(231,211,64)"/>
<path d="M3 11h1v1h-1v-1z" fill="rgb(231,211,64)"/>
<path d="M4 11h1v1h-1v-1z" fill="rgb(253,251,79)"/>
<path d="M5 11h1v1h-1v-1z" fill="rgb(231,211,64)"/>
<path d="M2 12h1v1h-1v-1z" fill="rgb(231,211,64)"/>
<path d="M3 12h1v1h-1v-1z" fill="rgb(253,251,79)"/>
<path d="M4 12h1v1h-1v-1z" fill="rgb(231,211,64)"/>
<path d="M1 13h1v1h-1v-1z" fill="rgb(71,221,113)"/>
<path d="M2 13h1v1h-1v-1z" fill="rgb(253,251,79)"/>
<path d="M3 13h1v1h-1v-1z" fill="rgb(231,211,64)"/>
<path d="M0 14h1v1h-1v-1z" fill="rgb(71,221,113)"/>
<path d="M1 14h1v1h-1v-1z" fill="rgb(57,203,92)"/>
<path d="M2 14h1v1h-1v-1z" fill="rgb(71,221,113)"/>
<path d="M0 15h1v1h-1v-1z" fill="rgb(231,211,64)"/>
<path d="M1 15h1v1h-1v-1z" fill="rgb(71,221,113)"/>
</svg>