<?xml version="1.0" encoding="utf-8"?>
<!DOCTYPE svg PUBLIC "-//W3C//DTD SVG 1.1//EN" "http://www.w3.org/Graphics/SVG/1.1/DTD/svg11.dtd">
<svg version="1.1" preserveAspectRatio="xMinYMin meet" xmlns="http://www.w3.org/2000/svg" xmlns:xlink="http://www.w3.org/1999/xlink" x="0px" y="0px" width="16px" height="16px" viewBox="0 0 16 16">
<path d="M0 0h16v2h-1v-1h-5v1h-2v1h-2v2h-2v2h-2v2h-2v-9z" fill="rgb(255,255,255)" fill-opacity="0"/>
<path d="M10 1h5v1h1v5h-2v-1h1v-3h-1v-1h-4v-1z" fill="rgb(113,24,205)"/>
<path d="M8 2h3v5h4v1h-5v-5h-1v2h-1v-1h-1v-1h1v-1z" fill="rgb(41,131,242)"/>
<path d="M11 2h3v1h-2v3h2v1h-3v-5z" fill="rgb(255,255,255)"/>
<path d="M6 3h1v2h2v4h3v-1h1v2h-4v2h-1v-6h-1v1h-1v-4z" fill="rgb(93,240,48)"/>
<path d="M9 3h1v5h2v1h-3v-6z" fill="rgb(255,255,255)"/>
<path d="M12 3h2v2h-1v-1h-1v-1z" fill="rgb(113,24,205)"/>
<path d="M14 3h1v3h-1v-3z" fill="rgb(255,255,255)"/>
<path d="M7 4h1v1h-1v-1z" fill="rgb(255,255,255)"/>
<path d="M12 4h1v1h1v1h-2v-2z" fill="rgb(41,131,242)"/>
<path d="M4 5h2v1h-1v5h-1v-6z" fill="rgb(255,255,0)"/>
<path d="M5 6h1v6h-2v2h-3v-4h1v3h1v-5h1v3h1v-5z" fill="rgb(255,255,255)"/>
<path d="M7 6h1v5h-1v-5z" fill="rgb(255,255,255)"/>
<path d="M2 7h2v1h-1v5h-1v-3h-1v4h3v-1h1v2h-5v-6h2v-2z" fill="rgb(255,31,31)"/>
<path d="M6 7h1v4h1v1h-1v1h-3v-1h2v-5z" fill="rgb(255,255,0)"/>
<path d="M15 7h1v9h-16v-1h5v-2h2v-1h2v-2h4v-2h2v-1z" fill="rgb(255,255,255)" fill-opacity="0"/>
</svg>